<svg xmlns="http://www.w3.org/2000/svg" width="107" height="115.939" viewBox="0 0 107 115.939">
  <g id="Group_3364" data-name="Group 3364" transform="translate(-924.455 -3730.031)">
    <path id="Union_10" data-name="Union 10" d="M52.72,103.606c-.179-7.95,0-43.857,0-43.857l-9.482,4V99.941s.3,6.366,5.019,9.652c-11.714-7.721-14.284-9.294-14.224-15.9.061-6.688,0-25.825,0-25.825A112.437,112.437,0,0,0,0,95.43C6.588,80.642,19.323,67.456,34.034,57.384c.086-17.286,0-38.789,0-38.789s-2.292-3.255-5.854,0S43.238,0,43.238,0V52.251L51.1,48.6V26.362L48.678,28.4,64.392,7.766v34.37l37.514-18.258V37.8S79.259,51.524,70.287,67.864c8.855-20.2,1.99-14.442,8.472-19.99s-14.366,6.59-14.366,6.59V109.87L68,115.939S52.9,111.556,52.72,103.606Zm-4.463,5.987.42.277Q48.462,109.735,48.258,109.593Zm53.649-66.037V53.729s-23.268,10.4-33.71,28.3C71.461,53.879,101.906,43.555,101.906,43.555Z" transform="translate(927.455 3730.031)" fill="#fff" opacity="0.079"/>
    <g id="Ellipse_483" data-name="Ellipse 483" transform="translate(924.455 3735)" fill="none" stroke="#d5d5d5" stroke-linecap="round" stroke-width="2">
      <circle cx="53.5" cy="53.5" r="53.5" stroke="none"/>
      <circle cx="53.5" cy="53.5" r="52.5" fill="none"/>
    </g>
    <path id="Path_184" data-name="Path 184" d="M78.513,65.8A1.434,1.434,0,0,0,77.1,67.251v4.361H48.827V36.722h5.654v1.454A1.434,1.434,0,0,0,55.9,39.63H70.032a1.434,1.434,0,0,0,1.414-1.454V36.722H77.1v1.454a1.414,1.414,0,1,0,2.827,0V35.269a1.434,1.434,0,0,0-1.414-1.454H71.445V32.361A4.3,4.3,0,0,0,67.2,28H58.723a4.3,4.3,0,0,0-4.241,4.361v1.454H47.414A1.434,1.434,0,0,0,46,35.269v37.8a1.434,1.434,0,0,0,1.414,1.454h31.1a1.434,1.434,0,0,0,1.414-1.454V67.251A1.434,1.434,0,0,0,78.513,65.8Zm-21.2-33.436a1.434,1.434,0,0,1,1.414-1.454H67.2a1.434,1.434,0,0,1,1.414,1.454v4.361H57.309ZM90.823,45.869l-5.654-5.815a1.386,1.386,0,0,0-2,0L66.2,57.5a1.475,1.475,0,0,0-.413,1.029v5.815A1.434,1.434,0,0,0,67.2,65.8h5.654a1.394,1.394,0,0,0,1-.424L90.823,47.928a1.483,1.483,0,0,0,0-2.059ZM68.618,62.89V59.13l15.55-15.991L87.823,46.9,72.274,62.89Zm-5.654,1.454A1.434,1.434,0,0,1,61.55,65.8H55.9a1.454,1.454,0,0,1,0-2.907H61.55A1.434,1.434,0,0,1,62.963,64.344Zm0-8.722a1.434,1.434,0,0,1-1.414,1.454H55.9a1.454,1.454,0,0,1,0-2.907H61.55A1.434,1.434,0,0,1,62.963,55.621Zm7.068-7.269H55.9a1.454,1.454,0,0,1,0-2.907H70.032a1.454,1.454,0,0,1,0,2.907Z" transform="translate(914.05 3732.777)" fill="#fff"/>
  </g>
</svg>
