<svg xmlns="http://www.w3.org/2000/svg" width="107" height="115.939" viewBox="0 0 107 115.939">
  <g id="Group_3366" data-name="Group 3366" transform="translate(-924.455 -3730.031)">
    <path id="Union_10" data-name="Union 10" d="M52.72,103.606c-.179-7.95,0-43.857,0-43.857l-9.482,4V99.941s.3,6.366,5.019,9.652c-11.714-7.721-14.284-9.294-14.224-15.9.061-6.688,0-25.825,0-25.825A112.437,112.437,0,0,0,0,95.43C6.588,80.642,19.323,67.456,34.034,57.384c.086-17.286,0-38.789,0-38.789s-2.292-3.255-5.854,0S43.238,0,43.238,0V52.251L51.1,48.6V26.362L48.678,28.4,64.392,7.766v34.37l37.514-18.258V37.8S79.259,51.524,70.287,67.864c8.855-20.2,1.99-14.442,8.472-19.99s-14.366,6.59-14.366,6.59V109.87L68,115.939S52.9,111.556,52.72,103.606Zm-4.463,5.987.42.277Q48.462,109.735,48.258,109.593Zm53.649-66.037V53.729s-23.268,10.4-33.71,28.3C71.461,53.879,101.906,43.555,101.906,43.555Z" transform="translate(927.455 3730.031)" fill="#fff" opacity="0.141"/>
    <g id="Ellipse_483" data-name="Ellipse 483" transform="translate(924.455 3735)" fill="none" stroke="#d5d5d5" stroke-linecap="round" stroke-width="2">
      <circle cx="53.5" cy="53.5" r="53.5" stroke="none"/>
      <circle cx="53.5" cy="53.5" r="52.5" fill="none"/>
    </g>
    <g id="income-amount-svgrepo-com" transform="translate(817.946 3762.057)">
      <path id="Path_3604" data-name="Path 3604" d="M150.453,43.489a.454.454,0,0,0,.454-.454v-20.9a.454.454,0,0,0-.454-.454h-3.63a.454.454,0,0,0-.454.454v20.9a.454.454,0,0,0,.454.454Zm0,1.815h-3.63a2.269,2.269,0,0,1-2.269-2.269v-20.9a2.269,2.269,0,0,1,2.269-2.269h3.63a2.269,2.269,0,0,1,2.269,2.269v20.9A2.269,2.269,0,0,1,150.453,45.3Zm12.2-1.815a.454.454,0,0,0,.454-.454V18.112a.454.454,0,0,0-.454-.454h-3.63a.454.454,0,0,0-.454.454V43.036a.454.454,0,0,0,.454.454Zm0,1.815h-3.63a2.269,2.269,0,0,1-2.269-2.269V18.112a2.269,2.269,0,0,1,2.269-2.269h3.63a2.269,2.269,0,0,1,2.269,2.269V43.036A2.269,2.269,0,0,1,162.658,45.3Zm12.2-1.773a.454.454,0,0,0,.454-.454V14.133a.454.454,0,0,0-.454-.454h-3.63a.454.454,0,0,0-.454.454V43.077a.454.454,0,0,0,.454.454h3.63Zm0,1.815h-3.63a2.269,2.269,0,0,1-2.269-2.269V14.133a2.269,2.269,0,0,1,2.269-2.269h3.63a2.269,2.269,0,0,1,2.269,2.269V43.077A2.269,2.269,0,0,1,174.863,45.346ZM169.026,1.815l4.537.007a.907.907,0,1,0,0-1.815L169.029,0a.907.907,0,0,0,0,1.815Z" transform="translate(-1.143 0)" fill="#fff"/>
      <path id="Path_3605" data-name="Path 3605" d="M778.5,1.058l-.014,4.512a.907.907,0,1,0,1.815.005l.014-4.512a.907.907,0,0,0-1.815-.005Z" transform="translate(-606.982 -0.146)" fill="#fff"/>
      <path id="Path_3606" data-name="Path 3606" d="M144.266,19.466H151.1a2.269,2.269,0,0,0,1.6-.665l4.562-4.562a.455.455,0,0,1,.321-.133h7.078a1.978,1.978,0,0,0,1.6-.664l6.253-6.253a.907.907,0,1,0-1.283-1.283l-6.253,6.253a.455.455,0,0,1-.321.133h-7.078a2.27,2.27,0,0,0-1.6.665l-4.563,4.563a.454.454,0,0,1-.321.133h-6.832a.907.907,0,1,0,0,1.815Z" transform="translate(0 -5.39)" fill="#fff"/>
    </g>
  </g>
</svg>
