<svg xmlns="http://www.w3.org/2000/svg" width="107" height="115.939" viewBox="0 0 107 115.939">
  <g id="Group_3365" data-name="Group 3365" transform="translate(-924.455 -3730.031)">
    <path id="Union_10" data-name="Union 10" d="M52.72,103.606c-.179-7.95,0-43.857,0-43.857l-9.482,4V99.941s.3,6.366,5.019,9.652c-11.714-7.721-14.284-9.294-14.224-15.9.061-6.688,0-25.825,0-25.825A112.437,112.437,0,0,0,0,95.43C6.588,80.642,19.323,67.456,34.034,57.384c.086-17.286,0-38.789,0-38.789s-2.292-3.255-5.854,0S43.238,0,43.238,0V52.251L51.1,48.6V26.362L48.678,28.4,64.392,7.766v34.37l37.514-18.258V37.8S79.259,51.524,70.287,67.864c8.855-20.2,1.99-14.442,8.472-19.99s-14.366,6.59-14.366,6.59V109.87L68,115.939S52.9,111.556,52.72,103.606Zm-4.463,5.987.42.277Q48.462,109.735,48.258,109.593Zm53.649-66.037V53.729s-23.268,10.4-33.71,28.3C71.461,53.879,101.906,43.555,101.906,43.555Z" transform="translate(927.455 3730.031)" fill="#fff" opacity="0.079"/>
    <g id="Ellipse_483" data-name="Ellipse 483" transform="translate(924.455 3735)" fill="none" stroke="#d5d5d5" stroke-linecap="round" stroke-width="2">
      <circle cx="53.5" cy="53.5" r="53.5" stroke="none"/>
      <circle cx="53.5" cy="53.5" r="52.5" fill="none"/>
    </g>
    <g id="file" transform="translate(957.455 3763.209)">
      <g id="Group_3369" data-name="Group 3369" transform="translate(4 1)">
        <g id="Group_3367" data-name="Group 3367" transform="translate(2.951 2.951)">
          <g id="Path_3595" data-name="Path 3595" transform="translate(-6 -3)" fill="#fff">
            <path d="M 34.57301330566406 43.01901626586914 L 6.664493560791016 43.01901626586914 C 6.215383529663086 43.01901626586914 5.850003242492676 42.63234710693359 5.850003242492676 42.15705490112305 C 5.850003242492676 41.6817741394043 6.215383529663086 41.29511642456055 6.664493560791016 41.29511642456055 L 33.75852203369141 41.29511642456055 L 33.75852203369141 3.711945533752441 C 33.75852203369141 3.236665487289429 34.12390518188477 2.850005388259888 34.57301330566406 2.850005388259888 C 35.02212524414062 2.850005388259888 35.38750457763672 3.236665487289429 35.38750457763672 3.711945533752441 L 35.38750457763672 42.15705490112305 C 35.38750457763672 42.63234710693359 35.02212524414062 43.01901626586914 34.57301330566406 43.01901626586914 Z" stroke="none"/>
            <path d="M 34.57301330566406 42.86901473999023 C 34.93981170654297 42.86901473999023 35.23750305175781 42.55005645751953 35.23750305175781 42.15705490112305 L 35.23750305175781 3.711945533752441 C 35.23750305175781 3.318955421447754 34.93981170654297 3.000005483627319 34.57301330566406 3.000005483627319 C 34.20622253417969 3.000005483627319 33.90852355957031 3.318955421447754 33.90852355957031 3.711945533752441 L 33.90852355957031 41.44511413574219 L 6.664493560791016 41.44511413574219 C 6.297693252563477 41.44511413574219 6.000003337860107 41.76406478881836 6.000003337860107 42.15705490112305 C 6.000003337860107 42.55005645751953 6.297693252563477 42.86901473999023 6.664493560791016 42.86901473999023 L 34.57301330566406 42.86901473999023 M 34.57301330566406 43.16901397705078 L 6.664493560791016 43.16901397705078 C 6.132673263549805 43.16901397705078 5.700003623962402 42.71505355834961 5.700003623962402 42.15705490112305 C 5.700003623962402 41.59906387329102 6.132673263549805 41.14511489868164 6.664493560791016 41.14511489868164 L 33.60852432250977 41.14511489868164 L 33.60852432250977 3.711945533752441 C 33.60852432250977 3.153955459594727 34.04119491577148 2.700005531311035 34.57301330566406 2.700005531311035 C 35.10483169555664 2.700005531311035 35.53750228881836 3.153955459594727 35.53750228881836 3.711945533752441 L 35.53750228881836 42.15705490112305 C 35.53750228881836 42.71505355834961 35.10483169555664 43.16901397705078 34.57301330566406 43.16901397705078 Z" stroke="none" fill="#fff"/>
          </g>
        </g>
        <g id="Group_3368" data-name="Group 3368">
          <g id="Path_3596" data-name="Path 3596" transform="translate(-4 -1)" fill="#fff">
            <path d="M 32.57301330566406 41.01900482177734 L 4.664493560791016 41.01900482177734 C 4.215383529663086 41.01900482177734 3.850003480911255 40.63234329223633 3.850003480911255 40.15706253051758 L 3.850003480911255 10.25530338287354 C 3.850003480911255 9.780023574829102 4.215383529663086 9.393363952636719 4.664493560791016 9.393363952636719 C 5.113603591918945 9.393363952636719 5.478973388671875 9.780023574829102 5.478973388671875 10.25530338287354 L 5.478973388671875 39.29512405395508 L 31.7585334777832 39.29512405395508 L 31.7585334777832 2.573893547058105 L 15.29631328582764 2.573893547058105 C 14.84720325469971 2.573893547058105 14.4818229675293 2.187223672866821 14.4818229675293 1.711943507194519 C 14.4818229675293 1.236663579940796 14.84720325469971 0.8500035405158997 15.29631328582764 0.8500035405158997 L 32.57301330566406 0.8500035405158997 C 33.02212524414062 0.8500035405158997 33.38750457763672 1.236663579940796 33.38750457763672 1.711943507194519 L 33.38750457763672 40.15706253051758 C 33.38750457763672 40.63234329223633 33.02212524414062 41.01900482177734 32.57301330566406 41.01900482177734 Z" stroke="none"/>
            <path d="M 32.57301330566406 40.86900329589844 C 32.93981170654297 40.86900329589844 33.23750305175781 40.55005264282227 33.23750305175781 40.15706253051758 L 33.23750305175781 1.711943507194519 C 33.23750305175781 1.318953514099121 32.93981170654297 1.000003576278687 32.57301330566406 1.000003576278687 L 15.29631328582764 1.000003576278687 C 14.9295129776001 1.000003576278687 14.63182353973389 1.318953514099121 14.63182353973389 1.711943507194519 C 14.63182353973389 2.104943513870239 14.9295129776001 2.423893451690674 15.29631328582764 2.423893451690674 L 31.90853309631348 2.423893451690674 L 31.90853309631348 39.44512176513672 L 5.328973293304443 39.44512176513672 L 5.328973293304443 10.25530338287354 C 5.328973293304443 9.862313270568848 5.031283378601074 9.543363571166992 4.664493560791016 9.543363571166992 C 4.297693252563477 9.543363571166992 4.000003337860107 9.862313270568848 4.000003337860107 10.25530338287354 L 4.000003337860107 40.15706253051758 C 4.000003337860107 40.55005264282227 4.297693252563477 40.86900329589844 4.664493560791016 40.86900329589844 L 32.57301330566406 40.86900329589844 M 32.57301330566406 41.16900253295898 L 4.664493560791016 41.16900253295898 C 4.132673263549805 41.16900253295898 3.700003385543823 40.71505355834961 3.700003385543823 40.15706253051758 L 3.700003385543823 10.25530338287354 C 3.700003385543823 9.69731330871582 4.132673263549805 9.243363380432129 4.664493560791016 9.243363380432129 C 5.196313381195068 9.243363380432129 5.628973484039307 9.69731330871582 5.628973484039307 10.25530338287354 L 5.628973484039307 39.14512252807617 L 31.60853385925293 39.14512252807617 L 31.60853385925293 2.723893642425537 L 15.29631328582764 2.723893642425537 C 14.76449298858643 2.723893642425537 14.33182334899902 2.269933462142944 14.33182334899902 1.711943507194519 C 14.33182334899902 1.153953552246094 14.76449298858643 0.7000035643577576 15.29631328582764 0.7000035643577576 L 32.57301330566406 0.7000035643577576 C 33.10483169555664 0.7000035643577576 33.53750228881836 1.153953552246094 33.53750228881836 1.711943507194519 L 33.53750228881836 40.15706253051758 C 33.53750228881836 40.71505355834961 33.10483169555664 41.16900253295898 32.57301330566406 41.16900253295898 Z" stroke="none" fill="#fff"/>
          </g>
        </g>
      </g>
      <g id="Group_3371" data-name="Group 3371" transform="translate(4.032 1)">
        <g id="Group_3370" data-name="Group 3370">
          <g id="Path_3597" data-name="Path 3597" transform="translate(-4.022 -1)" fill="#fff">
            <path d="M 13.58200073242188 11.48019027709961 L 4.758621215820312 11.48019027709961 C 4.398390769958496 11.48019027709961 4.076900959014893 11.26474094390869 3.939610958099365 10.93130111694336 C 3.801100969314575 10.60104084014893 3.875601053237915 10.22166061401367 4.129770755767822 9.965701103210449 L 12.95334053039551 1.111140608787537 C 13.11934089660645 0.94282066822052 13.34232139587402 0.8498106598854065 13.5806713104248 0.8498106598854065 C 13.69805145263672 0.8498106598854065 13.81263065338135 0.8726106286048889 13.92124080657959 0.9175806641578674 C 14.25441074371338 1.054760694503784 14.46986103057861 1.376820683479309 14.46986103057861 1.737950682640076 L 14.46986103057861 10.59232044219971 C 14.46986103057861 11.08189105987549 14.07157135009766 11.48019027709961 13.58200073242188 11.48019027709961 Z M 6.898046493530273 9.704461097717285 L 12.69413089752197 9.704461097717285 L 12.69413089752197 3.886670351028442 L 6.898046493530273 9.704461097717285 Z" stroke="none"/>
            <path d="M 13.58200073242188 11.33019065856934 C 13.98930072784424 11.33019065856934 14.31986141204834 10.99962043762207 14.31986141204834 10.59232044219971 L 14.31986141204834 1.737950682640076 C 14.31986141204834 1.439850687980652 14.13982105255127 1.169800639152527 13.86386108398438 1.056170701980591 C 13.58938121795654 0.9425310492515564 13.27062034606934 1.003040194511414 13.05959129333496 1.217020630836487 L 4.236210823059082 10.07139110565186 C 4.026660919189453 10.28242111206055 3.96320104598999 10.59970092773438 4.078310966491699 10.87419033050537 C 4.191940784454346 11.15015029907227 4.460521221160889 11.33019065856934 4.758621215820312 11.33019065856934 L 13.58200073242188 11.33019065856934 M 12.84413051605225 3.523580551147461 L 12.84413051605225 9.854460716247559 L 6.536870956420898 9.854460716247559 L 12.84413051605225 3.523580551147461 M 13.58200073242188 11.6301908493042 L 4.758621215820312 11.6301908493042 C 4.337360858917236 11.6301908493042 3.961441040039062 11.37828063964844 3.800910949707031 10.98841094970703 C 3.639210939407349 10.60285091400146 3.726221084594727 10.15921020507812 4.023331165313721 9.860011100769043 L 12.84709072113037 1.005260586738586 C 13.04095077514648 0.8086806535720825 13.30186080932617 0.6998106241226196 13.5806713104248 0.6998106241226196 C 13.71784114837646 0.6998106241226196 13.851731300354 0.7264506220817566 13.9786205291748 0.778990626335144 C 14.36795139312744 0.9393006563186646 14.61986064910889 1.315800666809082 14.61986064910889 1.737950682640076 L 14.61986064910889 10.59232044219971 C 14.61986064910889 11.16460037231445 14.15428066253662 11.6301908493042 13.58200073242188 11.6301908493042 Z M 7.259231567382812 9.554460525512695 L 12.5441312789917 9.554460525512695 L 12.5441312789917 4.249770164489746 L 7.259231567382812 9.554460525512695 Z" stroke="none" fill="#fff"/>
          </g>
        </g>
      </g>
      <g id="Group_3373" data-name="Group 3373" transform="translate(8.427 19.534)">
        <g id="Group_3372" data-name="Group 3372">
          <g id="Path_3598" data-name="Path 3598" transform="translate(-7 -14)" fill="#fff">
            <path d="M 19.54368782043457 15.62572574615479 L 7.73786735534668 15.62572574615479 C 7.248297691345215 15.62572574615479 6.849997520446777 15.22743511199951 6.849997520446777 14.73786544799805 C 6.849997520446777 14.24829578399658 7.248297691345215 13.85000514984131 7.73786735534668 13.85000514984131 L 19.54368782043457 13.85000514984131 C 20.03325843811035 13.85000514984131 20.43155670166016 14.24829578399658 20.43155670166016 14.73786544799805 C 20.43155670166016 15.22743511199951 20.03325843811035 15.62572574615479 19.54368782043457 15.62572574615479 Z" stroke="none"/>
            <path d="M 19.54368782043457 15.4757251739502 C 19.95099830627441 15.4757251739502 20.28155708312988 15.14516544342041 20.28155708312988 14.73786544799805 C 20.28155708312988 14.33056545257568 19.95099830627441 14.0000057220459 19.54368782043457 14.0000057220459 L 7.73786735534668 14.0000057220459 C 7.330567359924316 14.0000057220459 6.999997615814209 14.33056545257568 6.999997615814209 14.73786544799805 C 6.999997615814209 15.14516544342041 7.330567359924316 15.4757251739502 7.73786735534668 15.4757251739502 L 19.54368782043457 15.4757251739502 M 19.54368782043457 15.77572536468506 L 7.73786735534668 15.77572536468506 C 7.165587425231934 15.77572536468506 6.699997425079346 15.31014537811279 6.699997425079346 14.73786544799805 C 6.699997425079346 14.1655855178833 7.165587425231934 13.70000553131104 7.73786735534668 13.70000553131104 L 19.54368782043457 13.70000553131104 C 20.115966796875 13.70000553131104 20.58155822753906 14.1655855178833 20.58155822753906 14.73786544799805 C 20.58155822753906 15.31014537811279 20.115966796875 15.77572536468506 19.54368782043457 15.77572536468506 Z" stroke="none" fill="#fff"/>
          </g>
        </g>
      </g>
      <g id="Group_3375" data-name="Group 3375" transform="translate(8.427 22.385)">
        <g id="Group_3374" data-name="Group 3374">
          <g id="Path_3599" data-name="Path 3599" transform="translate(-7 -16)" fill="#fff">
            <path d="M 15.11650562286377 17.62572479248047 L 7.737865924835205 17.62572479248047 C 7.248295783996582 17.62572479248047 6.850006103515625 17.22743606567383 6.850006103515625 16.73786544799805 C 6.850006103515625 16.24829483032227 7.248295783996582 15.84999561309814 7.737865924835205 15.84999561309814 L 15.11650562286377 15.84999561309814 C 15.60607624053955 15.84999561309814 16.00437545776367 16.24829483032227 16.00437545776367 16.73786544799805 C 16.00437545776367 17.22743606567383 15.60607624053955 17.62572479248047 15.11650562286377 17.62572479248047 Z" stroke="none"/>
            <path d="M 15.11650562286377 17.4757251739502 C 15.52380561828613 17.4757251739502 15.8543758392334 17.14516639709473 15.8543758392334 16.73786544799805 C 15.8543758392334 16.33056449890137 15.52380561828613 15.99999523162842 15.11650562286377 15.99999523162842 L 7.737865924835205 15.99999523162842 C 7.330565929412842 15.99999523162842 7.000006198883057 16.33056449890137 7.000006198883057 16.73786544799805 C 7.000006198883057 17.14516639709473 7.330565929412842 17.4757251739502 7.737865924835205 17.4757251739502 L 15.11650562286377 17.4757251739502 M 15.11650562286377 17.77572631835938 L 7.737865924835205 17.77572631835938 C 7.165585994720459 17.77572631835938 6.700006008148193 17.31014633178711 6.700006008148193 16.73786544799805 C 6.700006008148193 16.16558456420898 7.165585994720459 15.69999504089355 7.737865924835205 15.69999504089355 L 15.11650562286377 15.69999504089355 C 15.68878555297852 15.69999504089355 16.15437507629395 16.16558456420898 16.15437507629395 16.73786544799805 C 16.15437507629395 17.31014633178711 15.68878555297852 17.77572631835938 15.11650562286377 17.77572631835938 Z" stroke="none" fill="#fff"/>
          </g>
        </g>
      </g>
      <g id="Group_3379" data-name="Group 3379" transform="translate(8.427 28.088)">
        <g id="Group_3378" data-name="Group 3378">
          <g id="Path_3601" data-name="Path 3601" transform="translate(-7 -20)" fill="#fff">
            <path d="M 18.06796455383301 21.62572288513184 L 7.737864017486572 21.62572288513184 C 7.248293876647949 21.62572288513184 6.850004196166992 21.2274341583252 6.850004196166992 20.73786354064941 C 6.850004196166992 20.24829292297363 7.248293876647949 19.85000419616699 7.737864017486572 19.85000419616699 L 18.06796455383301 19.85000419616699 C 18.55753326416016 19.85000419616699 18.95582389831543 20.24829292297363 18.95582389831543 20.73786354064941 C 18.95582389831543 21.2274341583252 18.55753326416016 21.62572288513184 18.06796455383301 21.62572288513184 Z" stroke="none"/>
            <path d="M 18.06796455383301 21.47572326660156 C 18.47526359558105 21.47572326660156 18.80582427978516 21.14516448974609 18.80582427978516 20.73786354064941 C 18.80582427978516 20.33056259155273 18.47526359558105 20.00000381469727 18.06796455383301 20.00000381469727 L 7.737864017486572 20.00000381469727 C 7.330564022064209 20.00000381469727 7.000003814697266 20.33056259155273 7.000003814697266 20.73786354064941 C 7.000003814697266 21.14516448974609 7.330564022064209 21.47572326660156 7.737864017486572 21.47572326660156 L 18.06796455383301 21.47572326660156 M 18.06796455383301 21.77572441101074 L 7.737864017486572 21.77572441101074 C 7.165584087371826 21.77572441101074 6.700004100799561 21.31014442443848 6.700004100799561 20.73786354064941 C 6.700004100799561 20.16558265686035 7.165584087371826 19.70000267028809 7.737864017486572 19.70000267028809 L 18.06796455383301 19.70000267028809 C 18.64024353027344 19.70000267028809 19.1058235168457 20.16558265686035 19.1058235168457 20.73786354064941 C 19.1058235168457 21.31014442443848 18.64024353027344 21.77572441101074 18.06796455383301 21.77572441101074 Z" stroke="none" fill="#fff"/>
          </g>
        </g>
      </g>
      <g id="Group_3383" data-name="Group 3383" transform="translate(8.427 32.237)">
        <g id="Group_3382" data-name="Group 3382">
          <g id="Path_3603" data-name="Path 3603" transform="translate(-19 -18)" fill="#fff">
            <path d="M 24.16504859924316 19.62572479248047 L 19.73786735534668 19.62572479248047 C 19.24829864501953 19.62572479248047 18.84999847412109 19.22743606567383 18.84999847412109 18.73786544799805 C 18.84999847412109 18.24829483032227 19.24829864501953 17.84999465942383 19.73786735534668 17.84999465942383 L 24.16504859924316 17.84999465942383 C 24.65461730957031 17.84999465942383 25.05291748046875 18.24829483032227 25.05291748046875 18.73786544799805 C 25.05291748046875 19.22743606567383 24.65461730957031 19.62572479248047 24.16504859924316 19.62572479248047 Z" stroke="none"/>
            <path d="M 24.16504859924316 19.4757251739502 C 24.57234764099121 19.4757251739502 24.90291786193848 19.14516639709473 24.90291786193848 18.73786544799805 C 24.90291786193848 18.33056449890137 24.57234764099121 17.99999618530273 24.16504859924316 17.99999618530273 L 19.73786735534668 17.99999618530273 C 19.33056831359863 17.99999618530273 18.99999809265137 18.33056449890137 18.99999809265137 18.73786544799805 C 18.99999809265137 19.14516639709473 19.33056831359863 19.4757251739502 19.73786735534668 19.4757251739502 L 24.16504859924316 19.4757251739502 M 24.16504859924316 19.77572631835938 L 19.73786735534668 19.77572631835938 C 19.16558837890625 19.77572631835938 18.69999885559082 19.31014633178711 18.69999885559082 18.73786544799805 C 18.69999885559082 18.16558456420898 19.16558837890625 17.69999504089355 19.73786735534668 17.69999504089355 L 24.16504859924316 17.69999504089355 C 24.73732757568359 17.69999504089355 25.20291709899902 18.16558456420898 25.20291709899902 18.73786544799805 C 25.20291709899902 19.31014633178711 24.73732757568359 19.77572631835938 24.16504859924316 19.77572631835938 Z" stroke="none" fill="#fff"/>
          </g>
        </g>
      </g>
    </g>
  </g>
</svg>
